# Blender 4.3.2
# www.blender.org
mtllib default_cube.mtl
o Cube
v -1.000000 -1.000000 1.000000
v -1.000000 1.000000 1.000000
v -1.000000 -1.000000 -1.000000
v -1.000000 1.000000 -1.000000
v 1.000000 -1.000000 1.000000
v 1.000000 1.000000 1.000000
v 1.000000 -1.000000 -1.000000
v 1.000000 1.000000 -1.000000
vn -1.0000 -0.0000 -0.0000
vn -0.0000 -0.0000 -1.0000
vn 1.0000 -0.0000 -0.0000
vn -0.0000 -0.0000 1.0000
vn -0.0000 -1.0000 -0.0000
vn -0.0000 1.0000 -0.0000
vt 0.000181 -2.000722
vt 1.000551 -2.000722
vt 1.000551 -1.000436
vt 0.000181 -1.000436
vt 1.000551 -0.000150
vt 0.000181 -0.000150
vt 1.000551 1.000137
vt 0.000181 1.000137
vt 1.000551 2.000423
vt 0.000181 2.000423
vt -1.000188 -0.000150
vt -1.000188 1.000137
vt 2.000920 -0.000150
vt 2.000920 1.000137
s 0
usemtl Concrete_panels
f 1/1/1 2/2/1 4/3/1 3/4/1
f 3/4/2 4/3/2 8/5/2 7/6/2
f 7/6/3 8/5/3 6/7/3 5/8/3
f 5/8/4 6/7/4 2/9/4 1/10/4
f 3/11/5 7/6/5 5/8/5 1/12/5
f 8/5/6 4/13/6 2/14/6 6/7/6
